<svg width="58" height="58" viewBox="0 0 58 58" xmlns="http://www.w3.org/2000/svg" xmlns:xlink="http://www.w3.org/1999/xlink"><title>localisation</title><desc>Created using Figma</desc><g transform="translate(1218 -4840)"><mask id="b"><use xlink:href="#a" fill="#fff" transform="translate(-1218 4840)"/></mask><g mask="url(#b)"><use xlink:href="#c" transform="translate(-1218 4840)" fill="#FFF"/></g></g><use xlink:href="#d" transform="translate(25.44 21.14)" fill="#FFF"/><use xlink:href="#e" transform="translate(19 15)" fill="#FFF"/><defs><path id="a" d="M0 29C0 12.984 12.984 0 29 0s29 12.984 29 29-12.984 29-29 29S0 45.016 0 29z"/><path id="c" d="M29-1C12.431-1-1 12.431-1 29h2C1 13.536 13.536 1 29 1v-2zm0 2c15.464 0 28 12.536 28 28h2C59 12.431 45.569-1 29-1v2zm28 28c0 15.464-12.536 28-28 28v2c16.569 0 30-13.431 30-30h-2zM29 57C13.536 57 1 44.464 1 29h-2c0 16.569 13.431 30 30 30v-2z"/><path id="d" d="M3.65 0C1.638 0 0 1.606 0 3.58c0 1.973 1.638 3.579 3.65 3.579 2.013 0 3.651-1.606 3.651-3.58C7.301 1.606 5.663 0 3.651 0zm0 6.136c-1.437 0-2.607-1.147-2.607-2.557s1.17-2.556 2.607-2.556c1.438 0 2.608 1.147 2.608 2.556 0 1.41-1.17 2.557-2.608 2.557z"/><path id="e" d="M17.073 2.872A10.036 10.036 0 0 0 10 0C7.329 0 4.818 1.02 2.929 2.872-.566 6.3-1 12.747 1.99 16.654L10 28l8-11.33c3.002-3.923 2.567-10.37-.928-13.798zm.082 13.2l-7.154 10.131-7.166-10.147C.124 12.512.512 6.688 3.667 3.596a8.989 8.989 0 0 1 6.334-2.573 8.99 8.99 0 0 1 6.334 2.572c3.155 3.093 3.544 8.917.82 12.477z"/></defs></svg>