<svg width="58" height="58" viewBox="0 0 58 58" version="1.1" xmlns="http://www.w3.org/2000/svg" xmlns:xlink="http://www.w3.org/1999/xlink">
<title>localisation</title>
<desc>Created using Figma</desc>
<g id="Canvas" transform="translate(1218 -4840)">
<g id="localisation">
<g id="Round">
<mask id="mask0_outline_ins">
<use xlink:href="#path0_fill" fill="white" transform="translate(-1218 4840)"/>
</mask>
<g mask="url(#mask0_outline_ins)">
<use xlink:href="#path1_stroke_2x" transform="translate(-1218 4840)" fill="#FFFFFF"/>
</g>
</g>
<g id="placeholder">
<g id="Group">
<g id="Vector">
<use xlink:href="#path2_fill" transform="translate(-1192.56 4861.14)" fill="#FFFFFF"/>
</g>
<g id="Vector">
<use xlink:href="#path3_fill" transform="translate(-1199 4855)" fill="#FFFFFF"/>
</g>
</g>
</g>
</g>
</g>
<defs>
<path id="path0_fill" d="M 0 29C 0 12.9837 12.9837 0 29 0C 45.0163 0 58 12.9837 58 29C 58 45.0163 45.0163 58 29 58C 12.9837 58 0 45.0163 0 29Z"/>
<path id="path1_stroke_2x" d="M 29 -1C 12.4315 -1 -1 12.4315 -1 29L 1 29C 1 13.536 13.536 1 29 1L 29 -1ZM 29 1C 44.464 1 57 13.536 57 29L 59 29C 59 12.4315 45.5685 -1 29 -1L 29 1ZM 57 29C 57 44.464 44.464 57 29 57L 29 59C 45.5685 59 59 45.5685 59 29L 57 29ZM 29 57C 13.536 57 1 44.464 1 29L -1 29C -1 45.5685 12.4315 59 29 59L 29 57Z"/>
<path id="path2_fill" d="M 3.65049 0C 1.63803 0 -4.13787e-07 1.60615 -4.13787e-07 3.57945C -4.13787e-07 5.55275 1.63803 7.1589 3.65049 7.1589C 5.66295 7.1589 7.30098 5.55275 7.30098 3.57945C 7.30098 1.60615 5.66295 0 3.65049 0ZM 3.65049 6.1362C 2.21272 6.1362 1.043 4.98924 1.043 3.57945C 1.043 2.16966 2.21272 1.0227 3.65049 1.0227C 5.08826 1.0227 6.25798 2.16966 6.25798 3.57945C 6.25798 4.98924 5.08826 6.1362 3.65049 6.1362Z"/>
<path id="path3_fill" d="M 17.0725 2.87225C 15.1837 1.02014 12.6721 0 10.001 0C 7.32937 0 4.81836 1.02014 2.92949 2.87225C -0.566114 6.29932 -1.00052 12.7474 1.98871 16.6542L 10.001 28L 18.0013 16.67C 21.0025 12.7474 20.5681 6.29932 17.0725 2.87225ZM 17.1555 16.0722L 10.001 26.2031L 2.8351 16.0564C 0.123829 12.5117 0.512345 6.68846 3.66741 3.5953C 5.35915 1.93648 7.60838 1.0227 10.001 1.0227C 12.3936 1.0227 14.6429 1.93648 16.3351 3.5953C 19.4902 6.68846 19.8787 12.5117 17.1555 16.0722Z"/>
</defs>
</svg>
