<?xml version="1.0" encoding="UTF-8"?>
<svg width="98px" height="54px" viewBox="0 0 98 54" version="1.1" xmlns="http://www.w3.org/2000/svg" xmlns:xlink="http://www.w3.org/1999/xlink">
    <!-- Generator: Sketch 48.2 (47327) - http://www.bohemiancoding.com/sketch -->
    <title>icon-bugermenu</title>
    <desc>Created with Sketch.</desc>
    <defs></defs>
    <g id="Page-1" stroke="none" stroke-width="1" fill="none" fill-rule="evenodd">
        <g id="icon-bugermenu" fill="#FFFFFF" fill-rule="nonzero">
            <path d="M96,0 L1.8,0 C0.8,0 0,0.8 0,1.8 C0,2.8 0.8,3.6 1.8,3.6 L96,3.6 C97,3.6 97.8,2.8 97.8,1.8 C97.8,0.8 97,0 96,0 Z" id="Shape"></path>
            <path d="M96,25 L1.8,25 C0.8,25 0,25.8 0,26.8 C0,27.8 0.8,28.6 1.8,28.6 L96,28.6 C97,28.6 97.8,27.8 97.8,26.8 C97.8,25.8 97,25 96,25 Z" id="Shape"></path>
            <path d="M96,50 L1.8,50 C0.8,50 0,50.8 0,51.8 C0,52.8 0.8,53.6 1.8,53.6 L96,53.6 C97,53.6 97.8,52.8 97.8,51.8 C97.8,50.8 97,50 96,50 Z" id="Shape"></path>
        </g>
    </g>
</svg>